<svg width="106" height="32" viewBox="0 0 106 32" fill="none" xmlns="http://www.w3.org/2000/svg">
<path d="M7.68164 12.9438C8.86224 10.9027 11.4724 10.2057 13.5135 11.3792C15.5547 12.5598 16.2517 15.1699 15.0782 17.211L7.96612 29.5291C6.78552 31.5703 4.1754 32.2673 2.13424 31.0938C0.0930833 29.9132 -0.603898 27.303 0.569591 25.2619L7.68164 12.9438Z" fill="white"/>
<path d="M29.1591 10.6641C31.5132 10.6641 33.4263 12.5772 33.4263 14.9313V27.733C33.4263 30.0871 31.5132 32.0002 29.1591 32.0002C26.805 32.0002 24.8918 30.0871 24.8918 27.733V14.9313C24.8918 12.5772 26.805 10.6641 29.1591 10.6641Z" fill="white"/>
<path d="M29.1591 8.53446C31.5158 8.53446 33.4263 6.62396 33.4263 4.26723C33.4263 1.9105 31.5158 0 29.1591 0C26.8024 0 24.8918 1.9105 24.8918 4.26723C24.8918 6.62396 26.8024 8.53446 29.1591 8.53446Z" fill="white"/>
<path d="M7.68158 12.9438C8.86218 10.9027 11.4723 10.2057 13.5135 11.3792C15.5546 12.5598 16.2516 15.1699 15.0781 17.211L7.98028 29.5433C6.79968 31.5845 4.18956 32.2815 2.1484 31.108C0.107243 29.9274 -0.589738 27.3173 0.583751 25.2761L7.68158 12.9438Z" fill="url(#paint0_linear_2189_18171)" fill-opacity="0.2"/>
<path fill-rule="evenodd" clip-rule="evenodd" d="M9.2466 11.3804C11.2878 10.1998 13.8979 10.9039 15.0785 12.945L22.1905 25.2631C23.3711 27.3043 22.667 29.9144 20.6259 31.095C18.5847 32.2756 15.9746 31.5715 14.794 29.5303L9.10436 19.673V19.7015C7.68906 17.5679 6.62225 16.8566 4.84424 17.9235L7.58949 13.1228C7.95221 12.4187 8.51406 11.8071 9.2466 11.3875V11.3804Z" fill="white"/>
<path d="M102.93 16.6847C101.504 16.6847 100.39 15.2912 99.0798 14.7438C98.6601 14.5661 98.1317 14.4736 97.502 14.4736C95.6854 14.4736 94.882 15.1633 94.8531 16.1373C94.8241 17.1966 95.8012 17.801 97.7336 18.2062L99.4634 18.6115C103.958 19.5571 105.948 21.7397 105.97 24.9249C105.941 28.9987 102.8 31.2951 97.531 31.2951C93.1667 31.2951 90.0473 29.7452 88.9906 26.4392C88.5491 25.0457 89.8085 23.83 91.2922 23.83C92.718 23.83 93.7674 25.1524 94.8748 26.034C95.49 26.5316 96.373 26.7876 97.4441 26.7876C99.3187 26.7876 100.325 26.0126 100.354 24.9249C100.325 23.9224 99.4924 23.3465 97.1546 22.8275L95.0485 22.3654C91.3935 21.562 89.1426 19.7561 89.1426 16.5354C89.1136 12.6038 92.6022 9.95898 97.4948 9.95898C101.316 9.95898 104.052 11.5089 105.145 14.0399C105.738 15.4121 104.443 16.6705 102.923 16.6705L102.93 16.6847Z" fill="white"/>
<path d="M83.9488 12.0706C82.5415 10.67 80.6198 9.95898 78.2409 9.95898C77.0122 9.95898 75.8406 10.2505 74.7619 10.8264C74.2261 11.125 73.2617 11.9213 73.2617 11.9213C73.2617 11.9213 72.3044 11.1179 71.7615 10.8264C70.6828 10.2505 69.5184 9.95898 68.2825 9.95898C65.9036 9.95898 63.9819 10.67 62.5746 12.0706C61.1673 13.4712 60.4529 15.3837 60.4529 17.7512V28.3304C60.4529 29.1978 60.7886 29.9585 61.4173 30.5202C61.9959 31.0321 62.7318 31.2951 63.6104 31.2951C64.4891 31.2951 65.2178 31.0392 65.7964 30.5273C66.4108 29.9798 66.7394 29.2262 66.7394 28.3375V17.7583C66.7394 16.4715 67.0109 16.0164 67.1252 15.8813C67.3824 15.5756 67.961 15.5116 68.4111 15.5116C69.1612 15.5116 69.4755 15.7747 69.647 15.9667C69.947 16.3221 70.1042 16.9336 70.1042 17.7583V28.3375C70.1042 29.2262 70.4328 29.987 71.0471 30.5273C71.6186 31.0321 72.2973 31.2951 73.2331 31.2951C74.169 31.2951 74.8976 31.025 75.462 30.5273C76.0835 29.9798 76.405 29.2262 76.405 28.3375V17.7583C76.405 16.9265 76.5622 16.3221 76.8622 15.9667C77.0336 15.7676 77.348 15.5116 78.0981 15.5116C78.541 15.5116 79.1268 15.5756 79.384 15.8813C79.4983 16.0164 79.7697 16.4715 79.7697 17.7583V28.3375C79.7697 29.2262 80.0983 29.987 80.7127 30.5273C81.2913 31.0392 82.0272 31.2951 82.8987 31.2951C83.7702 31.2951 84.5061 31.0321 85.0919 30.5202C85.7205 29.9585 86.0563 29.1978 86.0563 28.3304V17.7512C86.0563 15.3837 85.3419 13.4712 83.9346 12.0706H83.9488Z" fill="white"/>
<path d="M48.3233 31.2951C46.2114 31.2951 44.3364 30.8686 42.7472 30.0296C41.1092 29.1622 39.8337 27.8967 38.9694 26.2615C38.119 24.6689 37.6938 22.7848 37.6938 20.6519C37.6938 18.519 38.126 16.635 38.9694 15.0424C39.8337 13.393 41.0953 12.1203 42.7193 11.2529C44.3085 10.3927 46.1765 9.95898 48.2745 9.95898C50.0101 9.95898 51.6411 10.2718 53.1258 10.8832C54.6941 11.5302 55.886 12.426 56.6736 13.5494C57.05 14.0613 57.2382 14.63 57.2382 15.2344C57.2382 16.1231 56.806 16.9194 55.9975 17.5308C55.5514 17.8721 55.0217 18.0427 54.4083 18.0427C53.9831 18.0427 53.551 17.9574 53.1328 17.7867L53.07 17.7583C52.6309 17.545 52.2545 17.2606 51.9618 16.898C51.5505 16.4217 51.0835 16.0804 50.5468 15.8742C49.9334 15.6254 49.1807 15.5045 48.2676 15.5045C46.8387 15.5045 45.7792 15.924 45.0265 16.7772C44.2388 17.6588 43.8485 18.9598 43.8485 20.6519C43.8485 22.344 44.2388 23.6238 45.0195 24.4912C45.7862 25.3372 46.8666 25.7496 48.3164 25.7496C50.0659 25.7496 51.3972 25.259 52.3939 24.2566C53.2025 23.4816 54.004 23.1048 54.8056 23.1048C55.419 23.1048 56.0114 23.3181 56.5063 23.7233C57.2452 24.3774 57.6076 25.1382 57.6076 25.9629C57.6076 26.5885 57.3985 27.1786 56.9942 27.7261C56.109 28.8778 54.8683 29.7737 53.2931 30.3922C51.8154 30.9823 50.1356 31.288 48.3094 31.288L48.3233 31.2951Z" fill="white"/>
<defs>
<linearGradient id="paint0_linear_2189_18171" x1="11.4581" y1="14.9707" x2="2.1484" y2="31.0867" gradientUnits="userSpaceOnUse">
<stop/>
<stop offset="1" stop-opacity="0"/>
</linearGradient>
</defs>
</svg>
