<svg width="47" height="67" viewBox="0 0 47 67" fill="none" xmlns="http://www.w3.org/2000/svg">
<path d="M44.6907 34.6312C44.6093 34.6028 44.537 34.6028 44.4557 34.6028C44.9889 32.6269 45.2691 30.5471 45.2691 28.401C45.2691 15.78 35.4895 5.55079 23.4232 5.55079C11.3478 5.54133 1.56814 15.7705 1.56814 28.3916C1.56814 30.5376 1.84834 32.6269 2.3816 34.5933C2.30026 34.5933 2.21891 34.6028 2.1466 34.6217C1.45968 34.8297 1.18853 36.0398 1.55007 37.3066C1.9116 38.5735 2.76122 39.4338 3.44814 39.2258C3.65603 39.1596 3.82776 38.9989 3.9543 38.7815C7.04545 45.1156 13.0079 49.7386 19.9404 50.9392V53.7754C13.9298 54.9288 9.50559 59.8786 9.50559 64.6812H11.8244H35.0128H37.3317C37.3317 59.9164 32.8261 55.0045 26.8969 53.8133V50.9487C33.8294 49.748 39.7918 45.1251 42.883 38.7909C43.0095 39.0178 43.1812 39.1691 43.3891 39.2352C44.076 39.4432 44.9257 38.5924 45.2872 37.3161C45.6487 36.0493 45.3776 34.8392 44.6907 34.6312Z" fill="#FAC79A"/>
<path d="M0.232422 26.1207C0.232422 30.2047 2.19012 33.4244 2.19012 33.4244C2.58344 32.997 3.93327 33.2819 4.41599 35.5993L5.09537 35.5423V31.9617C9.67226 19.0355 24.5561 30.0622 35.0239 16.1007C36.9906 23.9173 39.6008 22.863 41.487 31.9617C41.487 31.9617 41.5675 35.1149 41.5764 35.5613C41.5764 35.7418 42.3809 35.7418 42.3809 35.5613C42.3809 33.3674 44.0794 32.8355 44.6873 33.3674C44.6873 33.3674 46.6092 30.0622 46.6092 26.7286C46.6271 9.57588 38.0543 0.914062 23.4208 0.914062C8.78727 0.914062 0.232422 10.3452 0.232422 26.1207Z" fill="#7D412D"/>
<path d="M19.8419 54.9383C13.9009 55.9035 9.50781 59.2739 9.50781 63.2851L12.0304 65.4241L23.4119 67.0036L23.4209 55.7928L19.8509 54.25L19.8419 54.9383Z" fill="#EFF0FC"/>
<path d="M26.9989 54.9383C32.9399 55.9035 37.333 59.2739 37.333 63.2851L34.8104 65.4241L23.4289 67.0036L23.42 55.7928L26.9899 54.25L26.9989 54.9383Z" fill="#EFF0FC"/>
<path d="M24.5796 67.0012L22.2607 66.9924L22.921 56.5664H23.9193L24.5796 67.0012Z" fill="#3C5285"/>
<path d="M19.9426 54.2454C13.9978 55.4081 9.50781 59.1285 9.50781 63.9606L12.0894 64.6801L19.9426 59.4627L23.4209 54.8251L19.9426 53.0859V54.2454Z" fill="white"/>
<path d="M26.8982 54.2454C32.8431 55.4081 37.333 59.1285 37.333 63.9606L34.7514 64.6801L26.8982 59.4627L23.42 54.8251L26.8982 53.0859V54.2454Z" fill="white"/>
<path d="M29.0371 54.25C29.0371 54.25 27.4202 56.0732 26.4884 58.4717C25.1912 61.7907 24.1589 66.0566 23.4189 67.0036C28.2972 66.9682 32.9836 66.1363 37.332 64.6228V63.0386C37.332 58.5514 33.0384 55.3563 29.0371 54.25Z" fill="#333131"/>
<path d="M23.4209 67.0036C22.6718 66.0566 21.6486 61.7995 20.3423 58.4717C19.4105 56.0732 17.7935 54.25 17.7935 54.25C13.8197 55.3298 9.50781 58.5514 9.50781 63.0386V64.6228C13.8562 66.1363 18.5426 66.9771 23.4209 67.0036Z" fill="#333131"/>
<path d="M30.3755 54.9334L26.8972 53.0859C26.8972 53.0859 23.343 67.0077 23.4202 66.999L26.8164 66.8676L28.806 61.5353L26.7649 60.0468H29.2606L30.3755 54.9334Z" fill="black"/>
<path d="M19.9402 53.0859L16.4619 54.9334L17.5696 60.0381H20.0682L18.0246 61.5266L20.0081 66.8414L23.4168 66.999C23.5027 67.0165 19.9402 53.0859 19.9402 53.0859Z" fill="black"/>
<path d="M23.4189 54.8242L25.0586 57.0436L23.4189 58.6833L21.7793 57.0436L23.4189 54.8242Z" fill="#4D67A3"/>
</svg>
