<svg width="80" height="24" viewBox="0 0 80 24" fill="none" xmlns="http://www.w3.org/2000/svg">
<path d="M5.76123 9.7081C6.64668 8.17723 8.60427 7.6545 10.1351 8.53461C11.666 9.42007 12.1887 11.3777 11.3086 12.9085L5.97459 22.1471C5.08914 23.6779 3.13155 24.2007 1.60068 23.3206C0.0698125 22.4351 -0.452923 20.4775 0.427193 18.9467L5.76123 9.7081Z" fill="white"/>
<path d="M21.8694 7.99805C23.6349 7.99805 25.0698 9.4329 25.0698 11.1985V20.7997C25.0698 22.5653 23.6349 24.0002 21.8694 24.0002C20.1038 24.0002 18.6689 22.5653 18.6689 20.7997V11.1985C18.6689 9.4329 20.1038 7.99805 21.8694 7.99805Z" fill="white"/>
<path d="M21.8694 6.40085C23.6369 6.40085 25.0698 4.96797 25.0698 3.20042C25.0698 1.43288 23.6369 0 21.8694 0C20.1018 0 18.6689 1.43288 18.6689 3.20042C18.6689 4.96797 20.1018 6.40085 21.8694 6.40085Z" fill="white"/>
<path d="M5.76106 9.7081C6.64651 8.17723 8.6041 7.6545 10.135 8.53461C11.6658 9.42007 12.1886 11.3777 11.3085 12.9085L5.98509 22.1578C5.09964 23.6886 3.14205 24.2114 1.61118 23.3312C0.0803105 22.4458 -0.442425 20.4882 0.437691 18.9573L5.76106 9.7081Z" fill="url(#paint0_linear_2189_18181)" fill-opacity="0.2"/>
<path fill-rule="evenodd" clip-rule="evenodd" d="M6.93507 8.53503C8.46594 7.64958 10.4235 8.17765 11.309 9.70852L16.643 18.9471C17.5285 20.4779 17.0004 22.4355 15.4695 23.321C13.9387 24.2064 11.9811 23.6784 11.0956 22.1475L6.82839 14.7545V14.7759C5.76692 13.1756 4.96681 12.6422 3.6333 13.4423L5.69224 9.84187C5.96428 9.3138 6.38567 8.85507 6.93507 8.54037V8.53503Z" fill="white"/>
<path d="M77.1979 12.5131C76.1285 12.5131 75.2926 11.4679 74.3101 11.0574C73.9952 10.9241 73.599 10.8547 73.1267 10.8547C71.7642 10.8547 71.1617 11.372 71.14 12.1025C71.1183 12.897 71.8511 13.3502 73.3004 13.6542L74.5978 13.9581C77.9687 14.6673 79.4614 16.3043 79.4777 18.6932C79.456 21.7485 77.1002 23.4709 73.1484 23.4709C69.8752 23.4709 67.5357 22.3084 66.7431 19.8289C66.412 18.7838 67.3565 17.872 68.4693 17.872C69.5387 17.872 70.3258 18.8638 71.1563 19.525C71.6177 19.8982 72.2799 20.0902 73.0833 20.0902C74.4892 20.0902 75.2437 19.509 75.2654 18.6932C75.2437 17.9413 74.6195 17.5094 72.8662 17.1201L71.2865 16.7735C68.5453 16.171 66.8571 14.8166 66.8571 12.4011C66.8354 9.45235 69.4518 7.46875 73.1213 7.46875C75.9874 7.46875 78.0392 8.63118 78.8589 10.5295C79.304 11.5586 78.3324 12.5024 77.1924 12.5024L77.1979 12.5131Z" fill="white"/>
<path d="M62.9618 9.05243C61.9063 8.00198 60.4651 7.46875 58.6809 7.46875C57.7593 7.46875 56.8807 7.68737 56.0716 8.11929C55.6698 8.34324 54.9465 8.94045 54.9465 8.94045C54.9465 8.94045 54.2285 8.33791 53.8213 8.11929C53.0123 7.68737 52.139 7.46875 51.212 7.46875C49.4279 7.46875 47.9866 8.00198 46.9311 9.05243C45.8756 10.1029 45.3398 11.5373 45.3398 13.3129V21.2473C45.3398 21.8978 45.5917 22.4684 46.0632 22.8896C46.4971 23.2736 47.049 23.4709 47.708 23.4709C48.367 23.4709 48.9135 23.2789 49.3475 22.895C49.8083 22.4844 50.0548 21.9192 50.0548 21.2526V13.3182C50.0548 12.3531 50.2584 12.0118 50.3441 11.9105C50.537 11.6812 50.9709 11.6332 51.3085 11.6332C51.8711 11.6332 52.1068 11.8305 52.2354 11.9745C52.4604 12.2411 52.5783 12.6997 52.5783 13.3182V21.2526C52.5783 21.9192 52.8248 22.4897 53.2855 22.895C53.7142 23.2736 54.2232 23.4709 54.925 23.4709C55.6269 23.4709 56.1734 23.2682 56.5967 22.895C57.0628 22.4844 57.3039 21.9192 57.3039 21.2526V13.3182C57.3039 12.6944 57.4218 12.2411 57.6468 11.9745C57.7754 11.8252 58.0112 11.6332 58.5737 11.6332C58.9059 11.6332 59.3453 11.6812 59.5381 11.9105C59.6239 12.0118 59.8275 12.3531 59.8275 13.3182V21.2526C59.8275 21.9192 60.0739 22.4897 60.5347 22.895C60.9687 23.2789 61.5206 23.4709 62.1742 23.4709C62.8279 23.4709 63.3797 23.2736 63.8191 22.8896C64.2906 22.4684 64.5424 21.8978 64.5424 21.2473V13.3129C64.5424 11.5373 64.0066 10.1029 62.9511 9.05243H62.9618Z" fill="white"/>
<path d="M36.2426 23.4709C34.6587 23.4709 33.2524 23.1509 32.0605 22.5217C30.832 21.8712 29.8754 20.922 29.2272 19.6956C28.5894 18.5012 28.2705 17.0881 28.2705 15.4885C28.2705 13.8888 28.5946 12.4757 29.2272 11.2813C29.8754 10.0442 30.8216 9.08976 32.0396 8.43922C33.2315 7.79402 34.6325 7.46875 36.206 7.46875C37.5077 7.46875 38.731 7.70337 39.8445 8.16194C41.0207 8.64718 41.9146 9.31905 42.5053 10.1615C42.7876 10.5455 42.9288 10.972 42.9288 11.4253C42.9288 12.0918 42.6046 12.689 41.9982 13.1476C41.6637 13.4036 41.2664 13.5315 40.8063 13.5315C40.4875 13.5315 40.1633 13.4675 39.8497 13.3396L39.8026 13.3182C39.4733 13.1583 39.191 12.945 38.9714 12.673C38.663 12.3158 38.3128 12.0598 37.9102 11.9052C37.4502 11.7186 36.8856 11.6279 36.2008 11.6279C35.1291 11.6279 34.3345 11.9425 33.77 12.5824C33.1792 13.2436 32.8865 14.2194 32.8865 15.4885C32.8865 16.7575 33.1792 17.7174 33.7647 18.3679C34.3398 19.0024 35.1501 19.3117 36.2374 19.3117C37.5495 19.3117 38.548 18.9438 39.2956 18.1919C39.902 17.6107 40.5031 17.3281 41.1043 17.3281C41.5643 17.3281 42.0087 17.4881 42.3799 17.792C42.934 18.2826 43.2058 18.8531 43.2058 19.4717C43.2058 19.9409 43.049 20.3835 42.7458 20.7941C42.0819 21.6579 41.1514 22.3298 39.9699 22.7937C38.8617 23.2362 37.6018 23.4655 36.2322 23.4655L36.2426 23.4709Z" fill="white"/>
<defs>
<linearGradient id="paint0_linear_2189_18181" x1="8.59344" y1="11.2283" x2="1.61118" y2="23.3152" gradientUnits="userSpaceOnUse">
<stop/>
<stop offset="1" stop-opacity="0"/>
</linearGradient>
</defs>
</svg>
